<mxfile host="app.diagrams.net" modified="2023-05-24T14:51:13.004Z" agent="Mozilla/5.0 (Windows NT 10.0; Win64; x64) AppleWebKit/537.36 (KHTML, like Gecko) Chrome/113.0.0.0 Safari/537.36" etag="Ub-cSwLJUfTyLKMQI6GX" version="21.3.3" type="github">
  <diagram name="第 1 页" id="pVZJuv3Ka7XM1kJRa0wD">
    <mxGraphModel dx="955" dy="645" grid="1" gridSize="10" guides="1" tooltips="1" connect="1" arrows="1" fold="1" page="1" pageScale="1" pageWidth="827" pageHeight="1169" math="0" shadow="0">
      <root>
        <mxCell id="0" />
        <mxCell id="1" parent="0" />
        <mxCell id="XvNtUAKX6z3-ILv-wPNi-1" value="" style="ellipse;whiteSpace=wrap;html=1;" vertex="1" parent="1">
          <mxGeometry x="350" y="290" width="120" height="80" as="geometry" />
        </mxCell>
        <mxCell id="XvNtUAKX6z3-ILv-wPNi-2" value="" style="shape=parallelogram;perimeter=parallelogramPerimeter;whiteSpace=wrap;html=1;fixedSize=1;" vertex="1" parent="1">
          <mxGeometry x="130" y="100" width="120" height="60" as="geometry" />
        </mxCell>
      </root>
    </mxGraphModel>
  </diagram>
</mxfile>
